#N canvas 117 56 1046 655 10;
#X obj 28 255 hip~ 3;
#X obj 28 277 clip~ -1 1;
#X obj 210 16 array set \$0-scale;
#X obj 210 37 array define \$0-scale;
#X obj 28 168 /~ 2;
#X obj 27 306 *~ 1;
#X obj 28 233 *~ 0.9;
#X obj 392 -205 vsl 17 127 1 127 0 1 empty empty VELOCITY 0 -9 0 10
-262144 -1 -1 5500 1;
#X obj 392 -62 nbx 3 17 1 127 0 0 empty empty empty 0 -8 0 10 -262144
-1 -1 56 256;
#X obj 17 -182 unpack f f;
#X obj 392 -31 v \$0-vel;
#X obj 179 -120 v \$0-vel;
#X obj 179 -141 sel 127;
#X obj 130 16 pack f f f;
#X obj 130 37 s \$0-poly;
#X obj 28 63 r \$0-poly;
#X obj 28 84 route 1;
#X msg 210 -5 0 2 5 7 9;
#X obj 108 126 mtof;
#X obj 108 168 /~ 2;
#X obj 108 63 r \$0-poly;
#X obj 108 105 unpack f f;
#X obj 108 84 route 2;
#X obj 188 126 mtof;
#X obj 188 168 /~ 2;
#X obj 188 63 r \$0-poly;
#X obj 188 105 unpack f f;
#X obj 268 126 mtof;
#X obj 268 168 /~ 2;
#X obj 268 63 r \$0-poly;
#X obj 268 105 unpack f f;
#X obj 188 84 route 3;
#X obj 268 84 route 4;
#X obj 348 126 mtof;
#X obj 348 168 /~ 2;
#X obj 348 63 r \$0-poly;
#X obj 348 105 unpack f f;
#X obj 428 126 mtof;
#X obj 428 168 /~ 2;
#X obj 428 63 r \$0-poly;
#X obj 428 105 unpack f f;
#X obj 348 84 route 5;
#X obj 428 84 route 6;
#X obj 130 -5 poly 6 1;
#X obj 167 -301 tgl 17 0 empty empty PLAY_SCALE 20 8 0 10 -262144 -1
-1 0 1;
#X obj 167 -279 metro 250;
#X obj 167 -258 random 15;
#X obj 167 -237 + 15;
#X text 448 260 Email: mianmogra94@gmail.com;
#X text 448 275 GitHub: github.com/MikeMorenoAudio;
#X text 448 300 Facebook: fb.com/MikeMorenoAudio;
#X text 448 330 WordPress: mikemorenoaudio.wordpress.com;
#X text 448 344 PatchStorage: patchstorage.com/author/mianmogra;
#X text 493 -82 INLET 1: Frequency;
#X text 493 -46 INLET 2: Trigger / Velocity;
#X text 503 -30 Trigger the instrument by sending a number from 1 to
127;
#X text 503 -67 An incoming float or signal sets the frequency.;
#X obj 28 126 mtof;
#X obj 28 105 unpack f f;
#X text 448 245 Miguel Moreno 2019;
#X obj 28 189 throw~ \$0-M;
#X obj 108 189 throw~ \$0-M;
#X obj 188 189 throw~ \$0-M;
#X obj 268 189 throw~ \$0-M;
#X obj 348 189 throw~ \$0-M;
#X obj 428 189 throw~ \$0-M;
#X obj 28 212 catch~ \$0-M;
#X text 448 315 Youtube: youtube.com/c/mikemorenoaudio;
#X text 503 -107 A synthesized marimba instrument using additive synthesis.
;
#X obj 28 147 chimes~;
#X obj 108 147 chimes~;
#X obj 188 147 chimes~;
#X obj 268 147 chimes~;
#X obj 348 147 chimes~;
#X obj 428 147 chimes~;
#X text 448 225 [chimes~] version 1;
#X text 493 -122 [chimes~];
#X obj 287 -326 r notesIn-\$1;
#X obj 32 -385 inlet~ inL-\$1;
#X obj 142 -385 inlet~ inR-\$1;
#X obj 423 -391 r ctrlIn-\$1;
#X obj 210 -26 r loadbang-\$1;
#X obj 288 -114 stripnote;
#X obj 613 -385 r auxIn-\$1;
#X obj 612 -362 r expIn-\$1;
#X obj 612 -337 r fsIn-\$1;
#X obj 55 412 outlet~ outL-\$1;
#X obj 173 413 outlet~ outR-\$1;
#X obj 167 -327 r ch_play-\$1;
#X obj 392 -326 r ch_vel-\$1;
#X msg 167 -212 \$1 127 \, \$1 0;
#X obj 17 -115 % 5;
#X obj 17 -94 tabread \$0-scale;
#X obj 17 -73 +;
#X obj 127 -108 div 5;
#X obj 127 -87 * 12;
#X obj 17 -136 t f f;
#X obj 17 -157 + 5;
#X obj 17 -52 + 24;
#X obj 55 365 +~;
#X obj 174 364 +~;
#X obj 33 -362 s~ xferL-\$1;
#X obj 142 -362 s~ xferR-\$1;
#X obj 66 305 r~ xferL-\$1;
#X obj 174 305 r~ xferR-\$1;
#X connect 0 0 1 0;
#X connect 1 0 5 0;
#X connect 4 0 60 0;
#X connect 5 0 99 1;
#X connect 5 0 100 1;
#X connect 6 0 0 0;
#X connect 7 0 8 0;
#X connect 8 0 10 0;
#X connect 9 0 97 0;
#X connect 9 1 12 0;
#X connect 11 0 43 1;
#X connect 12 0 11 0;
#X connect 12 1 43 1;
#X connect 13 0 14 0;
#X connect 15 0 16 0;
#X connect 16 0 58 0;
#X connect 17 0 2 0;
#X connect 18 0 70 0;
#X connect 19 0 61 0;
#X connect 20 0 22 0;
#X connect 21 0 18 0;
#X connect 21 1 70 1;
#X connect 22 0 21 0;
#X connect 23 0 71 0;
#X connect 24 0 62 0;
#X connect 25 0 31 0;
#X connect 26 0 23 0;
#X connect 26 1 71 1;
#X connect 27 0 72 0;
#X connect 28 0 63 0;
#X connect 29 0 32 0;
#X connect 30 0 27 0;
#X connect 30 1 72 1;
#X connect 31 0 26 0;
#X connect 32 0 30 0;
#X connect 33 0 73 0;
#X connect 34 0 64 0;
#X connect 35 0 41 0;
#X connect 36 0 33 0;
#X connect 36 1 73 1;
#X connect 37 0 74 0;
#X connect 38 0 65 0;
#X connect 39 0 42 0;
#X connect 40 0 37 0;
#X connect 40 1 74 1;
#X connect 41 0 36 0;
#X connect 42 0 40 0;
#X connect 43 0 13 0;
#X connect 43 1 13 1;
#X connect 43 2 13 2;
#X connect 44 0 45 0;
#X connect 45 0 46 0;
#X connect 46 0 47 0;
#X connect 47 0 90 0;
#X connect 57 0 69 0;
#X connect 58 0 57 0;
#X connect 58 1 69 1;
#X connect 66 0 6 0;
#X connect 69 0 4 0;
#X connect 70 0 19 0;
#X connect 71 0 24 0;
#X connect 72 0 28 0;
#X connect 73 0 34 0;
#X connect 74 0 38 0;
#X connect 77 0 82 0;
#X connect 78 0 101 0;
#X connect 79 0 102 0;
#X connect 81 0 17 0;
#X connect 82 0 43 0;
#X connect 82 1 43 1;
#X connect 88 0 44 0;
#X connect 89 0 7 0;
#X connect 90 0 9 0;
#X connect 91 0 92 0;
#X connect 92 0 93 0;
#X connect 93 0 98 0;
#X connect 94 0 95 0;
#X connect 95 0 93 1;
#X connect 96 0 91 0;
#X connect 96 1 94 0;
#X connect 97 0 96 0;
#X connect 98 0 43 0;
#X connect 99 0 86 0;
#X connect 100 0 87 0;
#X connect 103 0 99 0;
#X connect 104 0 100 0;
#X coords 0 655 1 654 100 100 0;
